<svg width="24" height="24" viewBox="0 0 24 24" fill="none" xmlns="http://www.w3.org/2000/svg">
<path fill-rule="evenodd" clip-rule="evenodd" d="M12 5.54839C10.7255 5.54839 9.69231 6.58824 9.69231 7.87097C9.69231 9.15369 10.7255 10.1935 12 10.1935C13.2745 10.1935 14.3077 9.15369 14.3077 7.87097C14.3077 6.58824 13.2745 5.54839 12 5.54839ZM8.15385 7.87097C8.15385 5.73309 9.87583 4 12 4C14.1242 4 15.8462 5.73309 15.8462 7.87097C15.8462 10.0088 14.1242 11.7419 12 11.7419C9.87583 11.7419 8.15385 10.0088 8.15385 7.87097Z" fill="white"/>
<path fill-rule="evenodd" clip-rule="evenodd" d="M10.4825 14.8387C8.91318 14.8387 7.64103 16.1191 7.64103 17.6985C7.64103 17.7293 7.64361 17.7541 7.64706 17.7727C7.64752 17.7752 7.64798 17.7775 7.64844 17.7796C8.05927 18.0085 9.22185 18.4516 12 18.4516C14.7781 18.4516 15.9407 18.0085 16.3516 17.7796C16.352 17.7775 16.3525 17.7752 16.3529 17.7727C16.3564 17.7541 16.359 17.7293 16.359 17.6985C16.359 16.1191 15.0868 14.8387 13.5175 14.8387H10.4825ZM6.10256 17.6985C6.10256 15.2639 8.06352 13.2903 10.4825 13.2903H13.5175C15.9365 13.2903 17.8974 15.2639 17.8974 17.6985C17.8974 18.1329 17.7512 18.7484 17.17 19.0922C16.4639 19.5099 15.0065 20 12 20C8.99348 20 7.53615 19.5099 6.82998 19.0922C6.24882 18.7484 6.10256 18.1329 6.10256 17.6985Z" fill="white"/>
<path fill-rule="evenodd" clip-rule="evenodd" d="M16.642 5.60446C16.7529 5.19169 17.1752 4.94752 17.5853 5.05907C18.9891 5.44092 19.9487 6.82838 19.9487 8.3871C19.9487 10.0345 18.8254 11.5423 17.2199 11.7364C16.7981 11.7874 16.4151 11.4846 16.3645 11.0601C16.3138 10.6356 16.6147 10.2501 17.0365 10.1991C17.7387 10.1142 18.4103 9.39012 18.4103 8.3871C18.4103 7.43491 17.8314 6.72996 17.1839 6.55383C16.7738 6.44227 16.5312 6.01722 16.642 5.60446Z" fill="white"/>
<path fill-rule="evenodd" clip-rule="evenodd" d="M18.4245 13.9163C18.5058 13.4967 18.9098 13.2228 19.3267 13.3046C20.8794 13.6094 22 14.9784 22 16.5706V16.9891C22 17.3864 21.8816 17.9868 21.3303 18.3415C20.9857 18.5632 20.4635 18.7916 19.6739 18.9524C19.2575 19.0372 18.8517 18.7662 18.7674 18.3471C18.6832 17.928 18.9524 17.5195 19.3688 17.4347C19.9544 17.3155 20.2853 17.1656 20.4558 17.0652L20.456 17.0638C20.4592 17.0451 20.4615 17.0201 20.4615 16.9891V16.5706C20.4615 15.7193 19.8624 14.9873 19.0322 14.8244C18.6153 14.7425 18.3432 14.336 18.4245 13.9163Z" fill="white"/>
<path fill-rule="evenodd" clip-rule="evenodd" d="M7.35797 11.1697C7.24713 11.5825 6.82481 11.8267 6.41469 11.7151C5.01092 11.3333 4.05128 9.94581 4.05128 8.3871C4.05128 6.73972 5.1746 5.23188 6.78005 5.03778C7.20186 4.98679 7.58487 5.2896 7.63554 5.71412C7.6862 6.13864 7.38534 6.52413 6.96354 6.57512C6.2613 6.66002 5.58974 7.38408 5.58974 8.3871C5.58974 9.33928 6.16857 10.0442 6.81608 10.2204C7.2262 10.3319 7.46882 10.757 7.35797 11.1697Z" fill="white"/>
<path fill-rule="evenodd" clip-rule="evenodd" d="M5.57552 13.9163C5.4942 13.4967 5.09025 13.2228 4.67327 13.3046C3.1206 13.6094 2 14.9784 2 16.5706V16.9891C2 17.3864 2.11838 17.9868 2.66968 18.3415C3.01428 18.5632 3.53653 18.7916 4.32609 18.9524C4.74249 19.0372 5.14834 18.7662 5.23259 18.3471C5.31683 17.928 5.04757 17.5195 4.63117 17.4347C4.04556 17.3155 3.71472 17.1656 3.54423 17.0652L3.544 17.0638C3.54082 17.0451 3.53846 17.0201 3.53846 16.9891V16.5706C3.53846 15.7193 4.13761 14.9873 4.96776 14.8244C5.38474 14.7425 5.65684 14.336 5.57552 13.9163Z" fill="white"/>
</svg>
